<svg width="468" height="515" viewBox="0 0 468 515" fill="none" xmlns="http://www.w3.org/2000/svg">
<g opacity="0.18" filter="url(#filter0_dif_6_129)">
<path d="M234 27C269.872 27 303.409 36.4613 331.98 52.8906C363.73 59.1138 387.829 80.3905 391.115 106.442C411.252 134.888 423 169.105 423 205.92C423 233.21 416.543 259.071 405.001 282.214C400.57 324.908 389.049 365.799 365.774 345.143C364.621 342.39 363.474 339.768 362.334 337.267C361.562 337.943 360.784 338.611 360 339.275V370.5C360 377.404 354.404 383 347.5 383C340.596 383 335 377.404 335 370.5V357.172C333.121 358.299 331.22 359.396 329.297 360.461C317.752 384.291 300.662 400.616 282.415 378.912C275.747 380.58 268.934 381.911 261.998 382.887C261.998 382.924 262 382.962 262 383C262 394.598 255.956 404 248.5 404C241.442 404 235.649 395.574 235.051 384.836C234.701 384.838 234.35 384.841 234 384.841C219.489 384.841 205.361 383.29 191.789 380.358C191.992 403.202 191.938 427.086 191 436C189 455 163.5 459.5 155 436C150.682 424.061 150.754 396.893 151.867 373.052C149.419 372.489 146.794 371.303 144 369.406V371C141.499 388.008 116.654 388.111 115 371V344.927C113.483 343.761 111.984 342.575 110.506 341.366C98.3828 413.968 45.0001 311.412 45 261.833C45 251.855 45.7654 242.236 47.1826 233.2C45.7452 224.306 45 215.195 45 205.92C45.0001 172.632 54.6028 141.467 71.3291 114.772C73.0582 79.2305 102.918 50.9365 139.5 50.9365C139.501 50.9365 139.503 50.9365 139.504 50.9365C167.303 35.7141 199.576 27 234 27ZM249 409C249 410.921 258.522 423.625 257.978 427C257.433 430.375 257.895 430.359 256.862 431.717C255.83 433.075 254.604 434.152 253.255 434.887C251.906 435.622 250.46 436 249 436C247.54 436 246.095 435.622 244.746 434.887C243.397 434.152 242.171 433.075 241.139 431.717C240.107 430.359 240 424.754 240 424.75C240.021 424.718 249 410.918 249 409Z" fill="#3E0F40" fill-opacity="0.9" shape-rendering="crispEdges"/>
</g>
<defs>
<filter id="filter0_dif_6_129" x="0" y="0" width="468" height="514.982" filterUnits="userSpaceOnUse" color-interpolation-filters="sRGB">
<feFlood flood-opacity="0" result="BackgroundImageFix"/>
<feColorMatrix in="SourceAlpha" type="matrix" values="0 0 0 0 0 0 0 0 0 0 0 0 0 0 0 0 0 0 127 0" result="hardAlpha"/>
<feOffset dy="18"/>
<feGaussianBlur stdDeviation="22.5"/>
<feComposite in2="hardAlpha" operator="out"/>
<feColorMatrix type="matrix" values="0 0 0 0 0 0 0 0 0 0 0 0 0 0 0 0 0 0 0.18 0"/>
<feBlend mode="normal" in2="BackgroundImageFix" result="effect1_dropShadow_6_129"/>
<feBlend mode="normal" in="SourceGraphic" in2="effect1_dropShadow_6_129" result="shape"/>
<feColorMatrix in="SourceAlpha" type="matrix" values="0 0 0 0 0 0 0 0 0 0 0 0 0 0 0 0 0 0 127 0" result="hardAlpha"/>
<feOffset dx="-3" dy="4"/>
<feGaussianBlur stdDeviation="4"/>
<feComposite in2="hardAlpha" operator="arithmetic" k2="-1" k3="1"/>
<feColorMatrix type="matrix" values="0 0 0 0 0 0 0 0 0 0 0 0 0 0 0 0 0 0 0.08 0"/>
<feBlend mode="normal" in2="shape" result="effect2_innerShadow_6_129"/>
<feGaussianBlur stdDeviation="10" result="effect3_foregroundBlur_6_129"/>
</filter>
</defs>
</svg>
