<svg width="94" height="91" viewBox="0 0 94 91" fill="none" xmlns="http://www.w3.org/2000/svg">
<path d="M2.44528e-05 91V-6.19888e-06H43.03C53.0834 -6.19888e-06 61.9234 1.86333 69.55 5.59C77.1767 9.31666 83.1134 14.56 87.36 21.32C91.6934 28.08 93.86 36.14 93.86 45.5C93.86 54.7733 91.6934 62.8333 87.36 69.68C83.1134 76.44 77.1767 81.6833 69.55 85.41C61.9234 89.1367 53.0834 91 43.03 91H2.44528e-05ZM25.74 70.46H41.99C47.19 70.46 51.6967 69.5067 55.51 67.6C59.41 65.6067 62.4434 62.7467 64.61 59.02C66.7767 55.2067 67.86 50.7 67.86 45.5C67.86 40.2133 66.7767 35.7067 64.61 31.98C62.4434 28.2533 59.41 25.4367 55.51 23.53C51.6967 21.5367 47.19 20.54 41.99 20.54H25.74V70.46Z" fill="url(#paint0_linear_1_68)"/>
<defs>
<linearGradient id="paint0_linear_1_68" x1="-75.7922" y1="-35" x2="-75.7922" y2="143" gradientUnits="userSpaceOnUse">
<stop stop-color="#FFC95A"/>
<stop offset="1" stop-color="#F59E24"/>
</linearGradient>
</defs>
</svg>
