<svg width="105" height="142" viewBox="0 0 105 142" fill="none" xmlns="http://www.w3.org/2000/svg">
<circle cx="52" cy="9" r="9" fill="#ED1C24"/>
<path d="M79.5628 39.155C89.2231 44.6895 96.7561 53.0386 101.048 62.967C105.339 72.8953 106.161 83.8756 103.391 94.2832C100.622 104.691 94.408 113.973 85.6696 120.757C76.9311 127.54 66.132 131.464 54.87 131.949C43.608 132.434 32.4813 129.453 23.136 123.448C13.7908 117.443 6.72343 108.732 2.97957 98.6047C-0.764296 88.4774 -0.985797 77.4713 2.34784 67.2147C5.68147 56.9582 12.3932 47.9961 21.4899 41.6543L52.5 82L79.5628 39.155Z" fill="url(#paint0_linear_7_241)"/>
<path d="M50.6268 10.5894C61.4662 9.71168 70.9727 17.6914 71.8602 28.4127C72.0357 30.5324 71.8595 32.6002 71.3827 34.5611C78.2411 37.2561 82.9997 43.1553 82.9999 49.9996C82.9999 59.3884 74.0456 66.9996 62.9999 66.9996C59.6139 66.9996 56.425 66.2835 53.6298 65.0211C50.5851 66.2855 47.1439 66.9996 43.4999 66.9996C31.0736 66.9996 21 58.7167 20.9999 48.4996C20.9999 41.5079 25.7174 35.4227 32.6776 32.2769C32.6508 32.0498 32.6263 31.8211 32.6073 31.5914C31.7199 20.8702 39.7875 11.4673 50.6268 10.5894Z" fill="#FBB03B"/>
<g filter="url(#filter0_d_7_241)">
<path d="M55.7768 117.21C54.7602 119.696 51.2399 119.696 50.2232 117.21L25.2464 56.1356C24.4393 54.162 25.8909 52 28.0232 52L77.9768 52C80.1091 52 81.5607 54.162 80.7536 56.1356L55.7768 117.21Z" fill="#5C165D"/>
</g>
<g filter="url(#filter1_d_7_241)">
<path d="M55.7768 117.21C54.7602 119.696 51.2399 119.696 50.2232 117.21L25.2464 56.1356C24.4393 54.162 25.8909 52 28.0232 52L77.9768 52C80.1091 52 81.5607 54.162 80.7536 56.1356L55.7768 117.21Z" fill="#5C165D"/>
</g>
<line x1="45.8419" y1="104.526" x2="63.8419" y2="98.5257" stroke="#FBB03B"/>
<line x1="42.2716" y1="95.5802" x2="59.2716" y2="106.58" stroke="#FBB03B"/>
<line x1="39.8465" y1="88.5241" x2="70.8465" y2="78.5241" stroke="#FBB03B"/>
<line x1="35.1491" y1="78.5228" x2="67.1491" y2="88.5228" stroke="#FBB03B"/>
<line x1="33.8987" y1="75.2028" x2="75.8987" y2="66.5104" stroke="#FBB03B"/>
<line x1="31.1049" y1="66.5111" x2="73.0359" y2="75.5111" stroke="#FBB03B"/>
<defs>
<filter id="filter0_d_7_241" x="9.02014" y="42" width="87.9597" height="99.0745" filterUnits="userSpaceOnUse" color-interpolation-filters="sRGB">
<feFlood flood-opacity="0" result="BackgroundImageFix"/>
<feColorMatrix in="SourceAlpha" type="matrix" values="0 0 0 0 0 0 0 0 0 0 0 0 0 0 0 0 0 0 127 0" result="hardAlpha"/>
<feOffset dy="6"/>
<feGaussianBlur stdDeviation="8"/>
<feComposite in2="hardAlpha" operator="out"/>
<feColorMatrix type="matrix" values="0 0 0 0 0 0 0 0 0 0 0 0 0 0 0 0 0 0 0.25 0"/>
<feBlend mode="normal" in2="BackgroundImageFix" result="effect1_dropShadow_7_241"/>
<feBlend mode="normal" in="SourceGraphic" in2="effect1_dropShadow_7_241" result="shape"/>
</filter>
<filter id="filter1_d_7_241" x="9.02014" y="42" width="87.9597" height="99.0745" filterUnits="userSpaceOnUse" color-interpolation-filters="sRGB">
<feFlood flood-opacity="0" result="BackgroundImageFix"/>
<feColorMatrix in="SourceAlpha" type="matrix" values="0 0 0 0 0 0 0 0 0 0 0 0 0 0 0 0 0 0 127 0" result="hardAlpha"/>
<feOffset dy="6"/>
<feGaussianBlur stdDeviation="8"/>
<feComposite in2="hardAlpha" operator="out"/>
<feColorMatrix type="matrix" values="0 0 0 0 0 0 0 0 0 0 0 0 0 0 0 0 0 0 0.25 0"/>
<feBlend mode="normal" in2="BackgroundImageFix" result="effect1_dropShadow_7_241"/>
<feBlend mode="normal" in="SourceGraphic" in2="effect1_dropShadow_7_241" result="shape"/>
</filter>
<linearGradient id="paint0_linear_7_241" x1="52.5" y1="32" x2="52.5" y2="132" gradientUnits="userSpaceOnUse">
<stop stop-color="#FFC95A"/>
<stop offset="1" stop-color="#F59E24"/>
</linearGradient>
</defs>
</svg>
