<svg width="324" height="21" viewBox="0 0 324 21" fill="none" xmlns="http://www.w3.org/2000/svg">
<path d="M1.72108e-05 20.532V0.231981H2.37802L11.484 15.573H10.208L19.198 0.231981H21.576L21.605 20.532H18.821L18.792 4.61098H19.459L11.455 18.067H10.121L2.05902 4.61098H2.78402V20.532H1.72108e-05ZM37.7313 20.764C36.1846 20.764 34.7443 20.503 33.4103 19.981C32.0956 19.459 30.955 18.734 29.9883 17.806C29.0216 16.8586 28.2676 15.7566 27.7263 14.5C27.185 13.2433 26.9143 11.8706 26.9143 10.382C26.9143 8.89332 27.185 7.52065 27.7263 6.26398C28.2676 5.00731 29.0216 3.91498 29.9883 2.98698C30.955 2.03965 32.0956 1.30498 33.4103 0.782981C34.725 0.260982 36.1653 -1.77026e-05 37.7313 -1.77026e-05C39.278 -1.77026e-05 40.699 0.260982 41.9943 0.782981C43.309 1.28565 44.4496 2.01065 45.4163 2.95798C46.4023 3.88598 47.1563 4.97831 47.6783 6.23498C48.2196 7.49165 48.4903 8.87398 48.4903 10.382C48.4903 11.89 48.2196 13.2723 47.6783 14.529C47.1563 15.7856 46.4023 16.8876 45.4163 17.835C44.4496 18.763 43.309 19.488 41.9943 20.01C40.699 20.5126 39.278 20.764 37.7313 20.764ZM37.7313 18.183C38.8526 18.183 39.887 17.9896 40.8343 17.603C41.801 17.2163 42.6323 16.675 43.3283 15.979C44.0436 15.2636 44.5946 14.4323 44.9813 13.485C45.3873 12.5376 45.5903 11.5033 45.5903 10.382C45.5903 9.26065 45.3873 8.22632 44.9813 7.27898C44.5946 6.33165 44.0436 5.50998 43.3283 4.81398C42.6323 4.09865 41.801 3.54765 40.8343 3.16098C39.887 2.77432 38.8526 2.58098 37.7313 2.58098C36.5906 2.58098 35.537 2.77432 34.5703 3.16098C33.623 3.54765 32.7916 4.09865 32.0763 4.81398C31.361 5.50998 30.8003 6.33165 30.3943 7.27898C30.0076 8.22632 29.8143 9.26065 29.8143 10.382C29.8143 11.5033 30.0076 12.5376 30.3943 13.485C30.8003 14.4323 31.361 15.2636 32.0763 15.979C32.7916 16.675 33.623 17.2163 34.5703 17.603C35.537 17.9896 36.5906 18.183 37.7313 18.183ZM62.9568 20.764C61.4101 20.764 59.9698 20.503 58.6358 19.981C57.3211 19.459 56.1804 18.734 55.2138 17.806C54.2471 16.8586 53.4931 15.7566 52.9518 14.5C52.4104 13.2433 52.1398 11.8706 52.1398 10.382C52.1398 8.89332 52.4104 7.52065 52.9518 6.26398C53.4931 5.00731 54.2471 3.91498 55.2138 2.98698C56.1804 2.03965 57.3211 1.30498 58.6358 0.782981C59.9504 0.260982 61.3908 -1.77026e-05 62.9568 -1.77026e-05C64.5034 -1.77026e-05 65.9244 0.260982 67.2198 0.782981C68.5344 1.28565 69.6751 2.01065 70.6418 2.95798C71.6278 3.88598 72.3818 4.97831 72.9038 6.23498C73.4451 7.49165 73.7158 8.87398 73.7158 10.382C73.7158 11.89 73.4451 13.2723 72.9038 14.529C72.3818 15.7856 71.6278 16.8876 70.6418 17.835C69.6751 18.763 68.5344 19.488 67.2198 20.01C65.9244 20.5126 64.5034 20.764 62.9568 20.764ZM62.9568 18.183C64.0781 18.183 65.1124 17.9896 66.0598 17.603C67.0264 17.2163 67.8578 16.675 68.5538 15.979C69.2691 15.2636 69.8201 14.4323 70.2068 13.485C70.6128 12.5376 70.8158 11.5033 70.8158 10.382C70.8158 9.26065 70.6128 8.22632 70.2068 7.27898C69.8201 6.33165 69.2691 5.50998 68.5538 4.81398C67.8578 4.09865 67.0264 3.54765 66.0598 3.16098C65.1124 2.77432 64.0781 2.58098 62.9568 2.58098C61.8161 2.58098 60.7624 2.77432 59.7958 3.16098C58.8484 3.54765 58.0171 4.09865 57.3018 4.81398C56.5864 5.50998 56.0258 6.33165 55.6198 7.27898C55.2331 8.22632 55.0398 9.26065 55.0398 10.382C55.0398 11.5033 55.2331 12.5376 55.6198 13.485C56.0258 14.4323 56.5864 15.2636 57.3018 15.979C58.0171 16.675 58.8484 17.2163 59.7958 17.603C60.7624 17.9896 61.8161 18.183 62.9568 18.183ZM79.0182 20.532V0.231981H87.5732C89.7386 0.231981 91.6429 0.657315 93.2862 1.50798C94.9489 2.35865 96.2346 3.54765 97.1432 5.07498C98.0712 6.60231 98.5352 8.37132 98.5352 10.382C98.5352 12.3926 98.0712 14.1616 97.1432 15.689C96.2346 17.2163 94.9489 18.4053 93.2862 19.256C91.6429 20.1066 89.7386 20.532 87.5732 20.532H79.0182ZM81.9182 18.009H87.3992C89.0812 18.009 90.5312 17.69 91.7492 17.052C92.9866 16.414 93.9436 15.5246 94.6202 14.384C95.2969 13.224 95.6352 11.89 95.6352 10.382C95.6352 8.85465 95.2969 7.52065 94.6202 6.37998C93.9436 5.23931 92.9866 4.34998 91.7492 3.71198C90.5312 3.07398 89.0812 2.75498 87.3992 2.75498H81.9182V18.009ZM109.763 20.764C108.217 20.764 106.738 20.532 105.326 20.068C103.915 19.5846 102.803 18.966 101.991 18.212L103.064 15.95C103.838 16.6266 104.824 17.1873 106.022 17.632C107.221 18.0766 108.468 18.299 109.763 18.299C110.943 18.299 111.9 18.1636 112.634 17.893C113.369 17.6223 113.91 17.255 114.258 16.791C114.606 16.3076 114.78 15.7663 114.78 15.167C114.78 14.471 114.548 13.9103 114.084 13.485C113.64 13.0596 113.05 12.7213 112.315 12.47C111.6 12.1993 110.807 11.9673 109.937 11.774C109.067 11.5806 108.188 11.3583 107.298 11.107C106.428 10.8363 105.626 10.498 104.891 10.092C104.176 9.68598 103.596 9.14465 103.151 8.46798C102.707 7.77198 102.484 6.88265 102.484 5.79998C102.484 4.75598 102.755 3.79898 103.296 2.92898C103.857 2.03965 104.708 1.33398 105.848 0.811982C107.008 0.270649 108.478 -1.77026e-05 110.256 -1.77026e-05C111.436 -1.77026e-05 112.605 0.154649 113.765 0.463982C114.925 0.773314 115.931 1.21798 116.781 1.79798L115.824 4.11798C114.954 3.53798 114.036 3.12232 113.069 2.87098C112.103 2.60031 111.165 2.46498 110.256 2.46498C109.116 2.46498 108.178 2.60998 107.443 2.89998C106.709 3.18998 106.167 3.57665 105.819 4.05998C105.491 4.54331 105.326 5.08465 105.326 5.68398C105.326 6.39932 105.549 6.96965 105.993 7.39498C106.457 7.82032 107.047 8.15865 107.762 8.40998C108.497 8.66132 109.299 8.89331 110.169 9.10598C111.039 9.29932 111.909 9.52165 112.779 9.77298C113.669 10.0243 114.471 10.353 115.186 10.759C115.921 11.165 116.511 11.7063 116.955 12.383C117.4 13.0596 117.622 13.9296 117.622 14.993C117.622 16.0176 117.342 16.9746 116.781 17.864C116.221 18.734 115.351 19.4396 114.171 19.981C113.011 20.503 111.542 20.764 109.763 20.764ZM140.551 20.764C139.004 20.764 137.564 20.503 136.23 19.981C134.915 19.459 133.775 18.734 132.808 17.806C131.841 16.8586 131.087 15.7566 130.546 14.5C130.005 13.2433 129.734 11.8706 129.734 10.382C129.734 8.89332 130.005 7.52065 130.546 6.26398C131.087 5.00731 131.841 3.91498 132.808 2.98698C133.775 2.03965 134.915 1.30498 136.23 0.782981C137.545 0.260982 138.985 -1.77026e-05 140.551 -1.77026e-05C142.098 -1.77026e-05 143.519 0.260982 144.814 0.782981C146.129 1.28565 147.269 2.01065 148.236 2.95798C149.222 3.88598 149.976 4.97831 150.498 6.23498C151.039 7.49165 151.31 8.87398 151.31 10.382C151.31 11.89 151.039 13.2723 150.498 14.529C149.976 15.7856 149.222 16.8876 148.236 17.835C147.269 18.763 146.129 19.488 144.814 20.01C143.519 20.5126 142.098 20.764 140.551 20.764ZM140.551 18.183C141.672 18.183 142.707 17.9896 143.654 17.603C144.621 17.2163 145.452 16.675 146.148 15.979C146.863 15.2636 147.414 14.4323 147.801 13.485C148.207 12.5376 148.41 11.5033 148.41 10.382C148.41 9.26065 148.207 8.22632 147.801 7.27898C147.414 6.33165 146.863 5.50998 146.148 4.81398C145.452 4.09865 144.621 3.54765 143.654 3.16098C142.707 2.77432 141.672 2.58098 140.551 2.58098C139.41 2.58098 138.357 2.77432 137.39 3.16098C136.443 3.54765 135.611 4.09865 134.896 4.81398C134.181 5.50998 133.62 6.33165 133.214 7.27898C132.827 8.22632 132.634 9.26065 132.634 10.382C132.634 11.5033 132.827 12.5376 133.214 13.485C133.62 14.4323 134.181 15.2636 134.896 15.979C135.611 16.675 136.443 17.2163 137.39 17.603C138.357 17.9896 139.41 18.183 140.551 18.183ZM156.612 20.532V0.231981H170.938V2.75498H159.512V20.532H156.612ZM159.222 12.325V9.83098H169.691V12.325H159.222ZM184.549 20.532V0.231981H193.104C195.269 0.231981 197.173 0.657315 198.817 1.50798C200.479 2.35865 201.765 3.54765 202.674 5.07498C203.602 6.60231 204.066 8.37132 204.066 10.382C204.066 12.3926 203.602 14.1616 202.674 15.689C201.765 17.2163 200.479 18.4053 198.817 19.256C197.173 20.1066 195.269 20.532 193.104 20.532H184.549ZM187.449 18.009H192.93C194.612 18.009 196.062 17.69 197.28 17.052C198.517 16.414 199.474 15.5246 200.151 14.384C200.827 13.224 201.166 11.89 201.166 10.382C201.166 8.85465 200.827 7.52065 200.151 6.37998C199.474 5.23931 198.517 4.34998 197.28 3.71198C196.062 3.07398 194.612 2.75498 192.93 2.75498H187.449V18.009ZM209.378 20.532V0.231981H223.704V2.75498H212.278V18.009H224.11V20.532H209.378ZM212.017 11.455V8.98998H222.457V11.455H212.017ZM235.591 20.764C234.045 20.764 232.566 20.532 231.154 20.068C229.743 19.5846 228.631 18.966 227.819 18.212L228.892 15.95C229.666 16.6266 230.652 17.1873 231.85 17.632C233.049 18.0766 234.296 18.299 235.591 18.299C236.771 18.299 237.728 18.1636 238.462 17.893C239.197 17.6223 239.738 17.255 240.086 16.791C240.434 16.3076 240.608 15.7663 240.608 15.167C240.608 14.471 240.376 13.9103 239.912 13.485C239.468 13.0596 238.878 12.7213 238.143 12.47C237.428 12.1993 236.635 11.9673 235.765 11.774C234.895 11.5806 234.016 11.3583 233.126 11.107C232.256 10.8363 231.454 10.498 230.719 10.092C230.004 9.68598 229.424 9.14465 228.979 8.46798C228.535 7.77198 228.312 6.88265 228.312 5.79998C228.312 4.75598 228.583 3.79898 229.124 2.92898C229.685 2.03965 230.536 1.33398 231.676 0.811982C232.836 0.270649 234.306 -1.77026e-05 236.084 -1.77026e-05C237.264 -1.77026e-05 238.433 0.154649 239.593 0.463982C240.753 0.773314 241.759 1.21798 242.609 1.79798L241.652 4.11798C240.782 3.53798 239.864 3.12232 238.897 2.87098C237.931 2.60031 236.993 2.46498 236.084 2.46498C234.944 2.46498 234.006 2.60998 233.271 2.89998C232.537 3.18998 231.995 3.57665 231.647 4.05998C231.319 4.54331 231.154 5.08465 231.154 5.68398C231.154 6.39932 231.377 6.96965 231.821 7.39498C232.285 7.82032 232.875 8.15865 233.59 8.40998C234.325 8.66132 235.127 8.89331 235.997 9.10598C236.867 9.29932 237.737 9.52165 238.607 9.77298C239.497 10.0243 240.299 10.353 241.014 10.759C241.749 11.165 242.339 11.7063 242.783 12.383C243.228 13.0596 243.45 13.9296 243.45 14.993C243.45 16.0176 243.17 16.9746 242.609 17.864C242.049 18.734 241.179 19.4396 239.999 19.981C238.839 20.503 237.37 20.764 235.591 20.764ZM254.473 20.764C252.927 20.764 251.448 20.532 250.036 20.068C248.625 19.5846 247.513 18.966 246.701 18.212L247.774 15.95C248.548 16.6266 249.534 17.1873 250.732 17.632C251.931 18.0766 253.178 18.299 254.473 18.299C255.653 18.299 256.61 18.1636 257.344 17.893C258.079 17.6223 258.62 17.255 258.968 16.791C259.316 16.3076 259.49 15.7663 259.49 15.167C259.49 14.471 259.258 13.9103 258.794 13.485C258.35 13.0596 257.76 12.7213 257.025 12.47C256.31 12.1993 255.517 11.9673 254.647 11.774C253.777 11.5806 252.898 11.3583 252.008 11.107C251.138 10.8363 250.336 10.498 249.601 10.092C248.886 9.68598 248.306 9.14465 247.861 8.46798C247.417 7.77198 247.194 6.88265 247.194 5.79998C247.194 4.75598 247.465 3.79898 248.006 2.92898C248.567 2.03965 249.418 1.33398 250.558 0.811982C251.718 0.270649 253.188 -1.77026e-05 254.966 -1.77026e-05C256.146 -1.77026e-05 257.315 0.154649 258.475 0.463982C259.635 0.773314 260.641 1.21798 261.491 1.79798L260.534 4.11798C259.664 3.53798 258.746 3.12232 257.779 2.87098C256.813 2.60031 255.875 2.46498 254.966 2.46498C253.826 2.46498 252.888 2.60998 252.153 2.89998C251.419 3.18998 250.877 3.57665 250.529 4.05998C250.201 4.54331 250.036 5.08465 250.036 5.68398C250.036 6.39932 250.259 6.96965 250.703 7.39498C251.167 7.82032 251.757 8.15865 252.472 8.40998C253.207 8.66132 254.009 8.89331 254.879 9.10598C255.749 9.29932 256.619 9.52165 257.489 9.77298C258.379 10.0243 259.181 10.353 259.896 10.759C260.631 11.165 261.221 11.7063 261.665 12.383C262.11 13.0596 262.332 13.9296 262.332 14.993C262.332 16.0176 262.052 16.9746 261.491 17.864C260.931 18.734 260.061 19.4396 258.881 19.981C257.721 20.503 256.252 20.764 254.473 20.764ZM267.439 20.532V0.231981H281.765V2.75498H270.339V18.009H282.171V20.532H267.439ZM270.078 11.455V8.98998H280.518V11.455H270.078ZM287.737 20.532V0.231981H295.654C298.283 0.231981 300.352 0.860314 301.86 2.11698C303.368 3.35431 304.122 5.08465 304.122 7.30798C304.122 8.77731 303.783 10.0436 303.107 11.107C302.43 12.151 301.463 12.9533 300.207 13.514C298.95 14.0746 297.432 14.355 295.654 14.355H289.332L290.637 13.021V20.532H287.737ZM301.309 20.532L296.147 13.166H299.25L304.47 20.532H301.309ZM290.637 13.311L289.332 11.89H295.567C297.423 11.89 298.824 11.4936 299.772 10.701C300.738 9.88898 301.222 8.75798 301.222 7.30798C301.222 5.85798 300.738 4.73665 299.772 3.94398C298.824 3.15131 297.423 2.75498 295.567 2.75498H289.332L290.637 1.30498V13.311ZM313.425 20.532V2.75498H306.465V0.231981H323.256V2.75498H316.296V20.532H313.425Z" fill="white"/>
</svg>
